<svg xmlns="http://www.w3.org/2000/svg" version="1.1" xmlns:xlink="http://www.w3.org/1999/xlink" xmlns:svgjs="http://svgjs.dev/svgjs" width="100%" height="100%" viewBox="0 0 1000 600"><rect width="1000" height="600" x="0" y="0" fill="#f7f7f9"/><g><circle r="166.66666666666666" cx="455.1133829752604" cy="477.33546747116384" fill="#1a1a1a" transform="matrix(0.4333557922727442,0,0,0.43335579227274423,0,93.14391616267051)"/><path d="M464.6504662777252 552.335443528189L464.6504662777252 552.335443528189Q443.09841152546323 552.335443528189 427.74113186910546 543.2017518751583Q412.3838522127477 534.0680602221275 404.2009865046696 517.2701351946292Q395.98930788916874 500.4722101671309 395.98930788916874 477.2201938769232L395.98930788916874 477.2201938769232Q395.98930788916874 454.19868084609794 404.2009865046696 437.40075581859963Q412.3838522127477 420.6028307911014 427.74113186910546 411.46913913807055Q443.09841152546323 402.33544748503977 464.6504662777252 402.33544748503977L464.6504662777252 402.33544748503977Q479.80605558212324 402.33544748503977 492.5701735704281 407.1183901172262Q505.334291558733 411.8725198419899 514.2374799523814 421.0062114950207L514.2374799523814 421.0062114950207L507.610511245135 434.922845780238Q498.07343888818485 425.99084447916687 487.7872309382417 421.9570374399734Q477.52983589572125 417.8944174933572 465.0826598890673 417.8944174933572L465.0826598890673 417.8944174933572Q440.38999822771905 417.8944174933572 427.3089382577633 433.4533875016747Q414.25669119523036 449.0123575099921 414.25669119523036 477.2201938769232L414.25669119523036 477.2201938769232Q414.25669119523036 505.65853350323675 427.3089382577633 521.2175035115542Q440.38999822771905 536.7764735198716 465.0826598890673 536.7764735198716L465.0826598890673 536.7764735198716Q477.52983589572125 536.7764735198716 487.7872309382417 532.7138535732554Q498.07343888818485 528.6800465340621 507.610511245135 519.7480452329909L507.610511245135 519.7480452329909L514.2374799523814 533.6646795182082Q505.334291558733 542.5678679118564 492.5701735704281 547.4660621737341Q479.80605558212324 552.335443528189 464.6504662777252 552.335443528189Z " fill="#1a1a1a" transform="matrix(0.4333557922727442,0,0,0.43335579227274423,0,93.14391616267051)"/><path d="M722.7468955976863 550.4626045457064L705.1133962549264 550.4626045457064L769.6254959745983 404.20828646752244L784.1472013156945 404.20828646752244L848.6593010353663 550.4626045457064L831.0258016926066 550.4626045457064L814.8617606284101 513.1210765257446L738.709246309923 513.1210765257446L722.7468955976863 550.4626045457064ZM777.088038997106 424.1180054966842L776.6846582931867 424.1180054966842L744.9328343132499 498.80106153660796L808.8398629770428 498.80106153660796L777.088038997106 424.1180054966842ZM919.1932984064053 552.335443528189L919.1932984064053 552.335443528189Q907.1783160110936 552.335443528189 898.1310630803312 546.9474298401235Q889.1126230569917 541.5306032446354 884.5601836841877 532.1952212396448L884.5601836841877 532.1952212396448L884.5601836841877 550.4626045457064L868.1656393606088 550.4626045457064L868.1656393606088 404.20828646752244L884.963564388107 404.20828646752244L884.963564388107 467.078050464094Q889.3143134089513 458.1460491630229 898.4480050619821 452.95972582691707Q907.5816967150129 447.7734024908113 919.1932984064053 447.7734024908113L919.1932984064053 447.7734024908113Q932.6777390802805 447.7734024908113 942.7334437708413 454.1122421238295Q952.8179613688249 460.4222688494249 958.2924137791587 472.14912217050863Q963.7956790969154 483.8759754915923 963.7956790969154 500.0400165557888L963.7956790969154 500.0400165557888Q963.7956790969154 516.0311801754483 958.2924137791587 527.7580334965321Q952.8179613688249 539.456073910193 942.7334437708413 545.9101651729025Q932.6777390802805 552.335443528189 919.1932984064053 552.335443528189ZM915.6781237008225 538.851002854314L915.6781237008225 538.851002854314Q929.7676354305768 538.851002854314 938.2962560277285 528.7952981637533Q946.7960637174575 518.7107805657697 946.7960637174575 500.0400165557888L946.7960637174575 500.0400165557888Q946.7960637174575 481.16756219384814 938.2962560277285 471.2271091329787Q929.7676354305768 461.2578431646864 915.6781237008225 461.2578431646864L915.6781237008225 461.2578431646864Q901.5597990636456 461.2578431646864 893.0599913739167 471.2271091329787Q884.5601836841877 481.16756219384814 884.5601836841877 500.0400165557888L884.5601836841877 500.0400165557888Q884.5601836841877 518.7107805657697 893.0599913739167 528.7952981637533Q901.5597990636456 538.851002854314 915.6781237008225 538.851002854314ZM1031.0161921143313 552.335443528189L1031.0161921143313 552.335443528189Q1016.2927964212754 552.335443528189 1005.4879561377217 545.9101651729025Q994.7119287615907 539.456073910193 988.8052827399146 527.7580334965321Q982.8986367182385 516.0311801754483 982.8986367182385 500.0400165557888L982.8986367182385 500.0400165557888Q982.8986367182385 484.077665843552 988.8052827399146 472.3508125224683Q994.7119287615907 460.6239592013846 1005.4879561377217 454.19868084609794Q1016.2927964212754 447.7734024908113 1031.0161921143313 447.7734024908113L1031.0161921143313 447.7734024908113Q1045.5378974554276 447.7734024908113 1056.4291764612499 454.19868084609794Q1067.320455467072 460.6239592013846 1073.2271014887483 472.3508125224683Q1079.1337475104242 484.077665843552 1079.1337475104242 500.0400165557888L1079.1337475104242 500.0400165557888Q1079.1337475104242 516.0311801754483 1073.2271014887483 527.7580334965321Q1067.320455467072 539.456073910193 1056.4291764612499 545.9101651729025Q1045.5378974554276 552.335443528189 1031.0161921143313 552.335443528189ZM1031.0161921143313 538.851002854314L1031.0161921143313 538.851002854314Q1045.1345167515083 538.851002854314 1053.6343244412374 528.7952981637533Q1062.1341321309662 518.7107805657697 1062.1341321309662 500.0400165557888L1062.1341321309662 500.0400165557888Q1062.1341321309662 481.16756219384814 1053.6343244412374 471.2271091329787Q1045.1345167515083 461.2578431646864 1031.0161921143313 461.2578431646864L1031.0161921143313 461.2578431646864Q1016.6961771251947 461.2578431646864 1008.3116210651569 471.2271091329787Q999.8982520976965 481.16756219384814 999.8982520976965 500.0400165557888L999.8982520976965 500.0400165557888Q999.8982520976965 518.7107805657697 1008.3116210651569 528.7952981637533Q1016.6961771251947 538.851002854314 1031.0161921143313 538.851002854314ZM1140.130672524513 552.335443528189L1140.130672524513 552.335443528189Q1103.8264091717724 552.335443528189 1103.8264091717724 512.2855022104831L1103.8264091717724 512.2855022104831L1103.8264091717724 449.6462414732939L1120.6243341992708 449.6462414732939L1120.6243341992708 512.0838118585234Q1120.6243341992708 525.5682525323984 1126.1275995170276 531.9935308876852Q1131.6308648347842 538.4188092429717 1143.4441568781363 538.4188092429717L1143.4441568781363 538.4188092429717Q1156.3235264961324 538.4188092429717 1164.4199534819422 529.8325628309744Q1172.487567560329 521.2175035115542 1172.487567560329 506.8974885224176L1172.487567560329 506.8974885224176L1172.487567560329 449.6462414732939L1189.31430549525 449.6462414732939L1189.31430549525 550.4626045457064L1172.919761171671 550.4626045457064L1172.919761171671 533.4629891662485Q1168.1368185394847 542.5678679118564 1159.5217592200645 547.4660621737341Q1150.935512808067 552.335443528189 1140.130672524513 552.335443528189ZM1261.2889482374296 552.335443528189L1261.2889482374296 552.335443528189Q1243.4537585427101 552.335443528189 1234.521757241639 542.8848098935073Q1225.618568847991 533.4629891662485 1225.618568847991 515.5989865641062L1225.618568847991 515.5989865641062L1225.618568847991 462.6984885358269L1205.9105401707886 462.6984885358269L1205.9105401707886 449.6462414732939L1225.618568847991 449.6462414732939L1225.618568847991 418.7299918086187L1242.4164938754889 418.7299918086187L1242.4164938754889 449.6462414732939L1274.3700082073856 449.6462414732939L1274.3700082073856 462.6984885358269L1242.4164938754889 462.6984885358269L1242.4164938754889 513.956650841006Q1242.4164938754889 525.7699428843582 1247.401126859635 531.9070921654168Q1252.3569469363586 538.0154285390524 1263.5651679238317 538.0154285390524L1263.5651679238317 538.0154285390524Q1266.8786522774549 538.0154285390524 1270.2209495385007 537.1798542237909Q1273.534433892124 536.3442799085294 1276.2140342824453 535.5375185006908L1276.2140342824453 535.5375185006908L1279.124137932149 548.3880752112641Q1276.4445375418277 549.8287205824047 1271.258214205722 551.0964885090082Q1266.0718908696163 552.335443528189 1261.2889482374296 552.335443528189ZM1412.3262089478 552.335443528189L1412.3262089478 552.335443528189Q1390.7453412881155 552.335443528189 1375.3880616317574 543.2017518751583Q1360.0307819753998 534.0680602221275 1351.8479162673216 517.2701351946292Q1343.636237651821 500.4722101671309 1343.636237651821 477.2201938769232L1343.636237651821 477.2201938769232Q1343.636237651821 454.19868084609794 1351.8479162673216 437.40075581859963Q1360.0307819753998 420.6028307911014 1375.3880616317574 411.46913913807055Q1390.7453412881155 402.33544748503977 1412.3262089478 402.33544748503977L1412.3262089478 402.33544748503977Q1427.4529853447755 402.33544748503977 1440.21710333308 407.1183901172262Q1452.9812213213852 411.8725198419899 1461.8844097150334 421.0062114950207L1461.8844097150334 421.0062114950207L1455.2574410077873 434.922845780238Q1445.720368650837 425.99084447916687 1435.434160700894 421.9570374399734Q1425.1767656583734 417.8944174933572 1412.7295896517194 417.8944174933572L1412.7295896517194 417.8944174933572Q1388.0369279903712 417.8944174933572 1374.9846809278383 433.4533875016747Q1361.9036209578824 449.0123575099921 1361.9036209578824 477.2201938769232L1361.9036209578824 477.2201938769232Q1361.9036209578824 505.65853350323675 1374.9846809278383 521.2175035115542Q1388.0369279903712 536.7764735198716 1412.7295896517194 536.7764735198716L1412.7295896517194 536.7764735198716Q1425.1767656583734 536.7764735198716 1435.434160700894 532.7138535732554Q1445.720368650837 528.6800465340621 1455.2574410077873 519.7480452329909L1455.2574410077873 519.7480452329909L1461.8844097150334 533.6646795182082Q1452.9812213213852 542.5678679118564 1440.21710333308 547.4660621737341Q1427.4529853447755 552.335443528189 1412.3262089478 552.335443528189ZM1505.046145034403 424.55019910802633L1484.3008516899797 424.55019910802633L1484.3008516899797 405.6489318386629L1505.046145034403 405.6489318386629L1505.046145034403 424.55019910802633ZM1503.1733060519205 550.4626045457064L1486.375381024422 550.4626045457064L1486.375381024422 449.6462414732939L1503.1733060519205 449.6462414732939L1503.1733060519205 550.4626045457064ZM1551.319674355436 550.4626045457064L1534.492936420515 550.4626045457064L1534.492936420515 449.6462414732939L1550.8874807440939 449.6462414732939L1550.8874807440939 466.84754720471153Q1555.87211372824 457.31047484776144 1565.0058053812709 452.55634512299775Q1574.1394970343017 447.7734024908113 1585.5494083737344 447.7734024908113L1585.5494083737344 447.7734024908113Q1621.421478115133 447.7734024908113 1621.421478115133 487.5928405491348L1621.421478115133 487.5928405491348L1621.421478115133 550.4626045457064L1604.6235530876347 550.4626045457064L1604.6235530876347 488.63010521635596Q1604.6235530876347 474.54059348660184 1599.120287769878 468.00006350162397Q1593.617022452121 461.45953351664605 1581.6020400568095 461.45953351664605L1581.6020400568095 461.45953351664605Q1567.6854057715923 461.45953351664605 1559.502540063514 470.0745928360663Q1551.319674355436 478.6896521554865 1551.319674355436 493.0096671446231L1551.319674355436 493.0096671446231L1551.319674355436 550.4626045457064ZM1697.7756827855796 552.335443528189L1697.7756827855796 552.335443528189Q1673.918595439493 552.335443528189 1660.0019611542757 538.3323705207033Q1646.1141397764811 524.3292975132176 1646.1141397764811 500.27051981517127L1646.1141397764811 500.27051981517127Q1646.1141397764811 484.71154980685384 1652.3377277798081 472.78300613381043Q1658.561315783135 460.854462460767 1669.4525947889574 454.31393247578916Q1680.3438737947795 447.7734024908113 1694.6638887839163 447.7734024908113L1694.6638887839163 447.7734024908113Q1715.2074917763798 447.7734024908113 1726.8190934677723 460.94090118303546Q1738.4306951591648 474.1083998752597 1738.4306951591648 497.1587258135078L1738.4306951591648 497.1587258135078L1738.4306951591648 503.5840041687944L1662.50868410006 503.5840041687944Q1663.3442584153217 520.785309900212 1672.4491371609297 529.8325628309744Q1681.5828288139605 538.851002854314 1697.7756827855796 538.851002854314L1697.7756827855796 538.851002854314Q1706.9093744386105 538.851002854314 1715.2074917763798 536.0561508343014Q1723.5056091141491 533.232485906866 1730.968152136657 526.8072075515793L1730.968152136657 526.8072075515793L1736.7595465286417 538.6493125023543Q1729.9308874694357 545.0745908576409 1719.3565504452645 548.705017192915Q1708.7534005136704 552.335443528189 1697.7756827855796 552.335443528189ZM1695.0672694878353 460.2205784974652L1695.0672694878353 460.2205784974652Q1680.747254498699 460.2205784974652 1672.4491371609297 469.15257979853635Q1664.1510198231604 478.05576819218464 1662.71037445202 492.57747353328097L1662.71037445202 492.57747353328097L1723.9089898180684 492.57747353328097Q1723.2751058547667 477.2201938769232 1715.92781446195 468.7203861871942Q1708.5517101617106 460.2205784974652 1695.0672694878353 460.2205784974652ZM1779.9212818480114 550.4626045457064L1763.123356820513 550.4626045457064L1763.123356820513 449.6462414732939L1779.5179011440919 449.6462414732939L1779.5179011440919 466.6458568527519Q1784.070340516896 457.5121651997211 1792.1667675027056 452.6427838452662Q1800.2631944885152 447.7734024908113 1811.0392218646462 447.7734024908113L1811.0392218646462 447.7734024908113Q1834.694618858773 447.7734024908113 1841.3215875660194 468.31700548327484L1841.3215875660194 468.31700548327484Q1845.9028398462465 458.77993312632475 1854.8060282398947 453.276667808568Q1863.7380295409657 447.7734024908113 1875.3496312323582 447.7734024908113L1875.3496312323582 447.7734024908113Q1908.9454812873546 447.7734024908113 1908.9454812873546 487.5928405491348L1908.9454812873546 487.5928405491348L1908.9454812873546 550.4626045457064L1892.1475562598566 550.4626045457064L1892.1475562598566 488.4284148643963Q1892.1475562598566 474.54059348660184 1887.2781749054016 468.00006350162397Q1882.408793550947 461.45953351664605 1871.2005725634735 461.45953351664605L1871.2005725634735 461.45953351664605Q1858.9550869087793 461.45953351664605 1851.6942342382313 470.1898444657575Q1844.4333815676832 478.89134250744615 1844.4333815676832 493.4130478485425L1844.4333815676832 493.4130478485425L1844.4333815676832 550.4626045457064L1827.6354565401848 550.4626045457064L1827.6354565401848 488.4284148643963Q1827.6354565401848 474.54059348660184 1822.7660751857297 468.00006350162397Q1817.8966938312751 461.45953351664605 1806.6884728438017 461.45953351664605L1806.6884728438017 461.45953351664605Q1794.2412968371477 461.45953351664605 1787.0668828888683 470.1898444657575Q1779.9212818480114 478.89134250744615 1779.9212818480114 493.4130478485425L1779.9212818480114 493.4130478485425L1779.9212818480114 550.4626045457064ZM1972.016935635886 552.335443528189L1972.016935635886 552.335443528189Q1961.6442889636746 552.335443528189 1953.4614232555964 548.2728235815728Q1945.2497446400953 544.2390165423794 1940.4956149153318 537.1798542237909Q1935.7126722831454 530.1206919052024 1935.7126722831454 521.4191938635138L1935.7126722831454 521.4191938635138Q1935.7126722831454 510.4126632280004 1941.4176279528615 503.9873848727138Q1947.122583622578 497.56210651742714 1960.2900823148025 494.7672544974145Q1973.4863939144493 491.97240247740194 1996.3062165933152 491.97240247740194L1996.3062165933152 491.97240247740194L2002.9331853005615 491.97240247740194L2002.9331853005615 485.51831121469246Q2002.9331853005615 472.66775450411916 1997.6316103347644 466.9627988344028Q1992.3588482763903 461.2578431646864 1980.7472465849978 461.2578431646864L1980.7472465849978 461.2578431646864Q1971.613554931967 461.2578431646864 1963.1137472422379 463.8510048327393Q1954.585126645086 466.4441665007922 1945.6819382514377 472.26437380019985L1945.6819382514377 472.26437380019985L1939.8617309520305 460.01888814550557Q1947.7564675858798 454.4003711980576 1959.0511272956214 451.08688684443445Q1970.374599912786 447.7734024908113 1980.7472465849978 447.7734024908113L1980.7472465849978 447.7734024908113Q2000.2247720028172 447.7734024908113 2009.675405637499 457.31047484776144Q2019.1260392721806 466.84754720471153 2019.1260392721806 486.9877694932558L2019.1260392721806 486.9877694932558L2019.1260392721806 550.4626045457064L2003.336566004481 550.4626045457064L2003.336566004481 533.0307955549063Q1999.4180105949786 541.9627968559774 1991.2063319794775 547.1491201920833Q1983.0234662713997 552.335443528189 1972.016935635886 552.335443528189ZM1974.7253489336304 539.6865771695755L1974.7253489336304 539.6865771695755Q1987.1725249402843 539.6865771695755 1995.0384486667112 531.0715178501553Q2002.9331853005615 522.4564585307351 2002.9331853005615 509.17370820881956L2002.9331853005615 509.17370820881956L2002.9331853005615 502.9501202054926L1996.507906945275 502.9501202054926Q1979.7099819177765 502.9501202054926 1970.057657931135 504.5060172063243Q1960.4053339444936 506.0619142071561 1956.5732172572598 509.8940308943898Q1952.741100570026 513.7549604890464 1952.741100570026 520.3819291962927L1952.741100570026 520.3819291962927Q1952.741100570026 528.8817368860216 1958.6477465917023 534.2697505740871Q1964.5543926133787 539.6865771695755 1974.7253489336304 539.6865771695755Z " fill="#1a1a1a" transform="matrix(0.4333557922727442,0,0,0.43335579227274423,0,93.14391616267051)"/></g></svg>